HIERARCHY
ROOT Hips
{
	OFFSET -0.001795 -0.223333 0.028219
	CHANNELS 6 Xposition Yposition Zposition Zrotation Yrotation Xrotation 
	JOINT LeftUpLeg
	{
		OFFSET 0.069520 -0.091406 -0.006815
		CHANNELS 3 Zrotation Yrotation Xrotation
		JOINT LeftLeg
		{
			OFFSET 0.034277 -0.375199 -0.004496
			CHANNELS 3 Zrotation Yrotation Xrotation
			JOINT LeftFoot
			{
				OFFSET -0.013596 -0.397961 -0.043693
				CHANNELS 3 Zrotation Yrotation Xrotation
				JOINT LeftToe
				{
					OFFSET 0.026358 -0.055791 0.119288
					CHANNELS 3 Zrotation Yrotation Xrotation
					End Site
					{
						OFFSET 0.000000 0.000000 0.000000
					}
				}
			}
		}
	}
	JOINT RightUpLeg
	{
		OFFSET -0.067670 -0.090522 -0.004320
		CHANNELS 3 Zrotation Yrotation Xrotation
		JOINT RightLeg
		{
			OFFSET -0.038290 -0.382569 -0.008850
			CHANNELS 3 Zrotation Yrotation Xrotation
			JOINT RightFoot
			{
				OFFSET 0.015774 -0.398415 -0.042312
				CHANNELS 3 Zrotation Yrotation Xrotation
				JOINT RightToe
				{
					OFFSET -0.025372 -0.048144 0.123348
					CHANNELS 3 Zrotation Yrotation Xrotation
					End Site
					{
						OFFSET 0.000000 0.000000 0.000000
					}
				}
			}
		}
	}
	JOINT Spine
	{
		OFFSET -0.002533 0.108963 -0.026696
		CHANNELS 3 Zrotation Yrotation Xrotation
		JOINT Spine1
		{
			OFFSET 0.005487 0.135180 0.001092
			CHANNELS 3 Zrotation Yrotation Xrotation
			JOINT Spine2
			{
				OFFSET 0.001457 0.052922 0.025425
				CHANNELS 3 Zrotation Yrotation Xrotation
				JOINT Neck
				{
					OFFSET -0.002778 0.213870 -0.042857
					CHANNELS 3 Zrotation Yrotation Xrotation
					JOINT Head
					{
						OFFSET 0.005152 0.064970 0.051349
						CHANNELS 3 Zrotation Yrotation Xrotation
						End Site
						{
							OFFSET 0.000000 0.000000 0.000000
						}
					}
				}
				JOINT LeftShoulder
				{
					OFFSET 0.078845 0.121749 -0.034090
					CHANNELS 3 Zrotation Yrotation Xrotation
					JOINT LeftArm
					{
						OFFSET 0.090977 0.030469 -0.008868
						CHANNELS 3 Zrotation Yrotation Xrotation
						JOINT LeftForeArm
						{
							OFFSET 0.259612 -0.012772 -0.027456
							CHANNELS 3 Zrotation Yrotation Xrotation
							JOINT LeftHand
							{
								OFFSET 0.249234 0.008986 -0.001171
								CHANNELS 3 Zrotation Yrotation Xrotation
								End Site
								{
									OFFSET 0.000000 0.000000 0.000000
								}
							}
						}
					}
				}
				JOINT RightShoulder
				{
					OFFSET -0.081759 0.118833 -0.038615
					CHANNELS 3 Zrotation Yrotation Xrotation
					JOINT RightArm
					{
						OFFSET -0.096012 0.032551 -0.009143
						CHANNELS 3 Zrotation Yrotation Xrotation
						JOINT RightForeArm
						{
							OFFSET -0.253742 -0.013329 -0.021401
							CHANNELS 3 Zrotation Yrotation Xrotation
							JOINT RightHand
							{
								OFFSET -0.255298 0.007772 -0.005559
								CHANNELS 3 Zrotation Yrotation Xrotation
								End Site
								{
									OFFSET 0.000000 0.000000 0.000000
								}
							}
						}
					}
				}
			}
		}
	}
}
MOTION
Frames: 15
Frame Time: 0.050000
0.000000 0.944071 0.000000 -0.516715 0.899070 2.341878 3.553777 0.112392 3.090908 -3.982609 0.415626 -6.625269 2.234682 7.030537 7.059661 0.000000 0.000000 0.000000 -2.281724 -0.076581 1.705994 2.235898 -0.261414 -1.104863 -2.010612 -6.952106 5.485748 0.000000 0.000000 0.000000 -2.218551 -0.081154 5.286896 5.023902 -0.817959 -20.616194 -0.537618 -0.562137 26.632894 -0.498876 2.082709 -30.828613 0.000000 0.000000 0.000000 -32.506619 -1.571485 -1.196641 -39.197588 -8.203271 -3.982831 -1.405562 -20.594972 1.192986 0.000000 0.000000 0.000000 24.787288 7.008326 2.790846 45.189412 8.885008 -3.305784 -7.450502 17.615012 -0.276560 0.000000 0.000000 0.000000 
0.001475 0.943848 -0.001514 -0.621208 -0.186676 2.633187 3.697166 0.131480 3.375816 -4.108290 0.431617 -7.950174 2.104464 6.849053 7.490476 0.000000 0.000000 0.000000 -2.457315 0.023350 0.637683 2.256239 -0.251102 -0.757251 -2.062265 -7.062137 5.269920 0.000000 0.000000 0.000000 -2.277730 -0.064438 4.882083 5.090143 -0.862053 -20.535910 -0.769134 0.346661 27.001553 -0.206834 2.035181 -32.071665 0.000000 0.000000 0.000000 -31.789480 -1.227811 -1.446080 -40.150286 -8.138266 -4.093308 -0.822180 -21.144666 1.134909 0.000000 0.000000 0.000000 24.505392 7.209874 3.008011 45.730193 8.831664 -3.406297 -8.104007 19.779791 -0.403242 0.000000 0.000000 0.000000 
0.003250 0.943829 -0.002990 -0.528905 0.237310 2.855090 3.969724 0.071057 2.656534 -4.867860 0.462772 -7.065706 2.046340 6.550415 6.720583 0.000000 0.000000 0.000000 -2.733306 0.044607 0.477773 2.581474 -0.285254 -0.771637 -1.953681 -6.736783 5.074787 0.000000 0.000000 0.000000 -1.933007 -0.086681 4.980987 4.515370 -0.692496 -20.582563 -0.716711 -0.358716 27.009022 -0.367805 2.044346 -32.172110 0.000000 0.000000 0.000000 -31.109128 -0.739889 -1.548552 -40.319143 -8.668707 -3.983625 -1.138850 -20.271873 1.146688 0.000000 0.000000 0.000000 24.690547 7.738828 3.168206 45.262162 9.158123 -3.201511 -7.794991 18.089441 -0.339245 0.000000 0.000000 0.000000 
0.005449 0.943942 -0.004075 -0.613756 0.088290 2.743517 3.877556 0.079635 2.693686 -5.020564 0.474210 -6.826282 2.092811 6.486171 6.245491 0.000000 0.000000 0.000000 -2.958529 0.073667 0.189914 2.758758 -0.300415 -0.663361 -1.786742 -6.462852 5.342965 0.000000 0.000000 0.000000 -2.192272 -0.074940 5.133564 5.158675 -0.868532 -20.617353 -1.007008 0.084659 27.302146 -0.720957 2.318698 -33.104108 0.000000 0.000000 0.000000 -31.896320 -0.515587 -1.934110 -39.743807 -8.267539 -4.021665 -1.796123 -20.914568 1.293028 0.000000 0.000000 0.000000 24.948950 8.301011 3.667928 44.900574 8.913937 -3.338204 -7.900049 18.639100 -0.359743 0.000000 0.000000 0.000000 
0.008108 0.944381 -0.004718 -0.718255 0.080026 2.581939 3.713112 0.085755 2.654952 -4.893823 0.470084 -6.632396 2.149728 6.447700 5.761502 0.000000 0.000000 0.000000 -2.980722 0.063182 0.325186 2.586931 -0.283365 -0.656749 -1.465599 -5.704267 5.191462 0.000000 0.000000 0.000000 -1.948424 -0.106842 5.776932 5.066364 -0.870124 -20.262346 -0.979247 0.397807 26.746515 -0.855594 2.423895 -32.717419 0.000000 0.000000 0.000000 -31.661195 -0.573466 -2.035815 -39.757667 -8.459349 -3.873235 -1.922541 -20.919856 1.303339 0.000000 0.000000 0.000000 25.283199 8.189580 3.688002 44.181904 9.199934 -3.174897 -7.626709 18.649904 -0.324250 0.000000 0.000000 0.000000 
0.011374 0.944826 -0.004786 -0.821584 0.013574 2.656367 3.442627 0.102694 2.748469 -4.667733 0.458341 -6.829221 1.992328 6.242392 6.051299 0.000000 0.000000 0.000000 -3.252310 0.080194 0.223855 2.742405 -0.294697 -0.417768 -1.468096 -5.786809 5.408335 0.000000 0.000000 0.000000 -2.020781 -0.102894 5.833679 5.141927 -0.884443 -20.361089 -0.823272 0.341650 27.082190 -1.104909 2.545888 -33.169622 0.000000 0.000000 0.000000 -31.898378 -0.280032 -2.206048 -39.628074 -8.671609 -3.844517 -2.032195 -21.483498 1.369877 0.000000 0.000000 0.000000 25.272501 8.531579 3.877762 43.756509 9.301180 -3.144741 -7.714484 18.956620 -0.349155 0.000000 0.000000 0.000000 
0.015233 0.945077 -0.004117 -0.897675 -0.121226 2.756394 3.087574 0.093994 2.371217 -4.478643 0.452180 -6.519075 2.067241 6.349112 5.973805 0.000000 0.000000 0.000000 -3.246962 0.101020 -0.044654 2.565230 -0.269361 -0.035727 -1.244069 -5.187761 5.088740 0.000000 0.000000 0.000000 -1.927238 -0.120069 6.308189 4.997128 -0.836236 -20.509023 -0.779389 0.270400 27.070567 -1.061316 2.493666 -33.016291 0.000000 0.000000 0.000000 -32.402383 -0.232170 -2.219381 -39.421303 -8.439068 -3.920777 -1.939567 -21.959774 1.392609 0.000000 0.000000 0.000000 25.473134 8.860022 4.029808 43.284008 9.380042 -3.081847 -7.824979 19.816730 -0.394640 0.000000 0.000000 0.000000 
0.019842 0.945064 -0.002418 -1.122736 -0.335269 2.737441 2.735018 0.101444 2.254315 -4.190246 0.440835 -5.972290 2.306986 6.686256 5.655367 0.000000 0.000000 0.000000 -3.406510 0.126596 -0.322823 2.727883 -0.276017 0.549766 -1.221911 -5.176200 5.156074 0.000000 0.000000 0.000000 -1.850042 -0.132317 6.570613 4.881956 -0.811701 -20.492746 -0.689255 0.230019 27.123266 -1.018752 2.430038 -32.602854 0.000000 0.000000 0.000000 -32.388877 -0.538693 -1.915431 -39.505538 -8.097931 -4.060509 -1.849825 -22.304310 1.403657 0.000000 0.000000 0.000000 25.792277 9.099731 4.126142 43.169898 9.211476 -3.123425 -8.122639 20.637395 -0.465787 0.000000 0.000000 0.000000 
0.025110 0.944671 0.000432 -1.178583 -0.825725 2.610392 2.251044 0.130440 2.349207 -4.167499 0.446078 -5.686493 2.543385 6.977536 5.211455 0.000000 0.000000 0.000000 -3.628795 0.154754 -0.609627 2.717067 -0.257358 1.449506 -1.271123 -5.151714 4.706750 0.000000 0.000000 0.000000 -1.931653 -0.132316 6.869608 4.732251 -0.778554 -20.519988 -0.583116 0.235428 27.189875 -1.068712 2.391497 -32.186117 0.000000 0.000000 0.000000 -32.391974 -0.818307 -1.564407 -39.496647 -7.911649 -4.168718 -2.011136 -22.005084 1.419578 0.000000 0.000000 0.000000 26.058542 9.171532 4.054548 42.700708 9.169531 -3.086290 -8.091773 21.550353 -0.500269 0.000000 0.000000 0.000000 
0.030956 0.944025 0.004281 -1.387693 -1.045775 2.513253 1.893813 0.154824 2.476131 -4.246372 0.454180 -5.256365 2.515288 6.691639 4.414858 0.000000 0.000000 0.000000 -3.886428 0.172281 -0.761693 2.667561 -0.234387 2.396936 -1.441815 -5.444650 4.429011 0.000000 0.000000 0.000000 -1.931141 -0.138579 7.121855 4.582495 -0.753824 -20.372074 -0.537597 0.026957 27.224629 -1.078193 2.335049 -32.022983 0.000000 0.000000 0.000000 -32.477470 -0.842336 -1.391642 -39.704474 -7.728958 -4.294012 -1.651793 -21.789319 1.349831 0.000000 0.000000 0.000000 26.512234 9.266712 3.990620 42.491499 9.017164 -3.092106 -8.770998 22.355005 -0.648417 0.000000 0.000000 0.000000 
0.037076 0.943666 0.008938 -1.573876 -1.610646 2.468194 1.680581 0.171676 2.549435 -4.336821 0.467474 -4.882090 2.333988 6.149826 3.804254 0.000000 0.000000 0.000000 -4.126782 0.215235 -1.276354 2.634786 -0.201327 3.790299 -1.505367 -5.482111 4.067126 0.000000 0.000000 0.000000 -2.054430 -0.131368 7.316697 4.537018 -0.755747 -20.334266 -0.460623 0.099462 27.257446 -1.092624 2.288020 -31.702204 0.000000 0.000000 0.000000 -32.842944 -1.053788 -1.138317 -39.474805 -7.314671 -4.438249 -1.664219 -21.403720 1.328035 0.000000 0.000000 0.000000 26.819143 9.199854 3.837100 42.500036 8.755727 -3.145759 -8.716221 23.039442 -0.671585 0.000000 0.000000 0.000000 
0.043041 0.943099 0.014400 -1.702184 -1.631879 2.511403 1.570817 0.199515 2.852639 -4.583094 0.485195 -4.805108 1.957219 5.217188 3.151408 0.000000 0.000000 0.000000 -4.495097 0.260133 -1.872231 2.643796 -0.169919 5.557706 -1.754350 -5.943677 3.782765 0.000000 0.000000 0.000000 -2.541228 -0.090357 7.245824 4.747052 -0.827725 -20.124004 -0.571240 -0.173379 27.266958 -1.027830 2.218790 -31.944582 0.000000 0.000000 0.000000 -32.457442 -0.830772 -1.142013 -39.900713 -6.879519 -4.638447 -1.703874 -21.171696 1.329495 0.000000 0.000000 0.000000 27.251621 9.038778 3.618359 42.560565 8.412360 -3.216716 -9.344459 23.524695 -0.810379 0.000000 0.000000 0.000000 
0.048437 0.942434 0.020730 -1.982039 -1.886513 2.408848 1.344944 0.249829 3.341852 -4.536516 0.484555 -4.837335 1.757263 4.638981 2.601069 0.000000 0.000000 0.000000 -4.575135 0.322053 -2.861929 2.773665 -0.136951 8.259495 -1.975402 -6.287515 3.307708 0.000000 0.000000 0.000000 -3.023607 -0.050893 7.196535 4.830205 -0.864394 -19.989221 -0.466590 -0.355452 27.459587 -0.903008 2.101012 -31.964324 0.000000 0.000000 0.000000 -32.655997 -0.801210 -1.006726 -39.751968 -6.608731 -4.770313 -1.489993 -20.787131 1.274056 0.000000 0.000000 0.000000 27.135256 9.017610 3.471169 43.338660 7.965437 -3.380758 -9.660379 23.707820 -0.881283 0.000000 0.000000 0.000000 
0.052962 0.941775 0.027888 -2.118724 -1.748053 2.106523 1.218236 0.306773 3.963660 -4.387367 0.473232 -4.709958 1.381964 3.606214 1.783235 0.000000 0.000000 0.000000 -4.659032 0.402554 -4.272223 3.013979 -0.109179 12.434420 -2.454795 -7.107982 2.492489 0.000000 0.000000 0.000000 -3.568480 -0.010660 7.093438 4.934770 -0.922135 -19.582059 -0.649541 -0.597659 27.767068 -0.625706 1.940689 -32.121516 0.000000 0.000000 0.000000 -32.328699 -0.559074 -1.072510 -39.854471 -6.408133 -4.882189 -1.464062 -20.669805 1.268528 0.000000 0.000000 0.000000 27.703451 8.906721 3.345474 43.653361 7.648055 -3.507259 -10.198112 23.613618 -0.971775 0.000000 0.000000 0.000000 
0.056469 0.941107 0.035456 -2.372900 -1.255771 1.777540 1.386469 0.373919 4.931467 -4.353773 0.465161 -4.938997 0.879262 2.579719 1.757894 0.000000 0.000000 0.000000 -4.687128 0.526215 -6.462450 3.604732 -0.185530 17.803776 -3.035246 -8.381339 2.255710 0.000000 0.000000 0.000000 -3.947556 0.010470 7.236661 4.932267 -0.929238 -19.393690 -0.875172 -0.959402 27.780965 -0.457157 1.843478 -32.057122 0.000000 0.000000 0.000000 -32.296260 -0.665028 -0.978566 -38.965108 -6.155439 -4.868580 -1.355282 -20.340122 1.215410 0.000000 0.000000 0.000000 28.105972 8.632843 3.151523 44.286255 6.985272 -3.768758 -10.493050 23.321335 -1.000767 0.000000 0.000000 0.000000 
